<svg xmlns="http://www.w3.org/2000/svg" viewBox="0 0 720 380" width="720" height="380" font-family="'Noto Sans CJK KR','Noto Sans KR','Malgun Gothic','Apple SD Gothic Neo',sans-serif">
<rect width="720" height="380" fill="#ffffff"/>
<text x="360.0" y="26" text-anchor="middle" font-size="16" font-weight="bold" fill="#222">비교 횟수 ÷ n·log₂n (무작위)</text>
<line x1="78" y1="322.0" x2="700" y2="322.0" stroke="#e5e5e5"/>
<text x="72.0" y="326.0" font-size="10" text-anchor="end" fill="#444" >0</text>
<line x1="78" y1="236.7" x2="700" y2="236.7" stroke="#e5e5e5"/>
<text x="72.0" y="240.7" font-size="10" text-anchor="end" fill="#444" >0.5</text>
<line x1="78" y1="151.3" x2="700" y2="151.3" stroke="#e5e5e5"/>
<text x="72.0" y="155.3" font-size="10" text-anchor="end" fill="#444" >1</text>
<line x1="78" y1="66.0" x2="700" y2="66.0" stroke="#e5e5e5"/>
<text x="72.0" y="70.0" font-size="10" text-anchor="end" fill="#444" >1.5</text>
<text x="16.0" y="185.0" font-size="11" text-anchor="middle" fill="#444" transform="rotate(-90 16 185.0)">비교 / n log n</text>
<line x1="78" y1="322" x2="700" y2="322" stroke="#888"/>
<text x="108.0" y="340.0" font-size="10" text-anchor="middle" fill="#444" >1,000</text>
<text x="220.4" y="340.0" font-size="10" text-anchor="middle" fill="#444" >4,000</text>
<text x="332.8" y="340.0" font-size="10" text-anchor="middle" fill="#444" >16,000</text>
<text x="445.2" y="340.0" font-size="10" text-anchor="middle" fill="#444" >64,000</text>
<text x="557.6" y="340.0" font-size="10" text-anchor="middle" fill="#444" >256,000</text>
<text x="670.0" y="340.0" font-size="10" text-anchor="middle" fill="#444" >1,024,000</text>
<text x="389.0" y="368.0" font-size="11" text-anchor="middle" fill="#444" >n (로그 축)</text>
<polyline points="108.0,173.2 220.4,169.4 332.8,166.7 445.2,164.8 557.6,163.3 670.0,162.1" fill="none" stroke="#4C78A8" stroke-width="2.2"/>
<circle cx="108.0" cy="173.2" r="3.2" fill="#4C78A8"/>
<circle cx="220.4" cy="169.4" r="3.2" fill="#4C78A8"/>
<circle cx="332.8" cy="166.7" r="3.2" fill="#4C78A8"/>
<circle cx="445.2" cy="164.8" r="3.2" fill="#4C78A8"/>
<circle cx="557.6" cy="163.3" r="3.2" fill="#4C78A8"/>
<circle cx="670.0" cy="162.1" r="3.2" fill="#4C78A8"/>
<polyline points="108.0,106.9 220.4,97.5 332.8,113.7 445.2,112.9 557.6,113.6 670.0,109.3" fill="none" stroke="#F58518" stroke-width="2.2"/>
<circle cx="108.0" cy="106.9" r="3.2" fill="#F58518"/>
<circle cx="220.4" cy="97.5" r="3.2" fill="#F58518"/>
<circle cx="332.8" cy="113.7" r="3.2" fill="#F58518"/>
<circle cx="445.2" cy="112.9" r="3.2" fill="#F58518"/>
<circle cx="557.6" cy="113.6" r="3.2" fill="#F58518"/>
<circle cx="670.0" cy="109.3" r="3.2" fill="#F58518"/>
<polyline points="108.0,173.7 220.4,169.9 332.8,167.1 445.2,165.2 557.6,163.7 670.0,162.5" fill="none" stroke="#54A24B" stroke-width="2.2"/>
<circle cx="108.0" cy="173.7" r="3.2" fill="#54A24B"/>
<circle cx="220.4" cy="169.9" r="3.2" fill="#54A24B"/>
<circle cx="332.8" cy="167.1" r="3.2" fill="#54A24B"/>
<circle cx="445.2" cy="165.2" r="3.2" fill="#54A24B"/>
<circle cx="557.6" cy="163.7" r="3.2" fill="#54A24B"/>
<circle cx="670.0" cy="162.5" r="3.2" fill="#54A24B"/>
<rect x="86" y="42" width="12" height="12" fill="#4C78A8"/>
<text x="102.0" y="52.0" font-size="11" text-anchor="start" fill="#333" >mergeSort</text>
<rect x="196" y="42" width="12" height="12" fill="#F58518"/>
<text x="212.0" y="52.0" font-size="11" text-anchor="start" fill="#333" >quickSort</text>
<rect x="306" y="42" width="12" height="12" fill="#54A24B"/>
<text x="322.0" y="52.0" font-size="11" text-anchor="start" fill="#333" >timSort</text>
</svg>