<svg xmlns="http://www.w3.org/2000/svg" viewBox="0 0 720 380" width="720" height="380" font-family="'Noto Sans CJK KR','Noto Sans KR','Malgun Gothic','Apple SD Gothic Neo',sans-serif">
<rect width="720" height="380" fill="#ffffff"/>
<text x="360.0" y="26" text-anchor="middle" font-size="16" font-weight="bold" fill="#222">입력 모양별 걸린 시간 (n = 100,000)</text>
<line x1="78" y1="322.0" x2="700" y2="322.0" stroke="#e5e5e5"/>
<text x="72.0" y="326.0" font-size="10" text-anchor="end" fill="#444" >0</text>
<line x1="78" y1="270.8" x2="700" y2="270.8" stroke="#e5e5e5"/>
<text x="72.0" y="274.8" font-size="10" text-anchor="end" fill="#444" >5</text>
<line x1="78" y1="219.6" x2="700" y2="219.6" stroke="#e5e5e5"/>
<text x="72.0" y="223.6" font-size="10" text-anchor="end" fill="#444" >10</text>
<line x1="78" y1="168.4" x2="700" y2="168.4" stroke="#e5e5e5"/>
<text x="72.0" y="172.4" font-size="10" text-anchor="end" fill="#444" >15</text>
<line x1="78" y1="117.2" x2="700" y2="117.2" stroke="#e5e5e5"/>
<text x="72.0" y="121.2" font-size="10" text-anchor="end" fill="#444" >20</text>
<line x1="78" y1="66.0" x2="700" y2="66.0" stroke="#e5e5e5"/>
<text x="72.0" y="70.0" font-size="10" text-anchor="end" fill="#444" >25</text>
<text x="16.0" y="185.0" font-size="11" text-anchor="middle" fill="#444" transform="rotate(-90 16 185.0)">시간 (ms)</text>
<line x1="78" y1="322" x2="700" y2="322" stroke="#888"/>
<text x="140.2" y="340.0" font-size="11" text-anchor="middle" fill="#444" >무작위</text>
<rect x="90.4" y="100.3" width="31.2" height="221.7" fill="#4C78A8"/>
<rect x="123.6" y="113.7" width="31.2" height="208.3" fill="#F58518"/>
<rect x="156.8" y="121.2" width="31.2" height="200.8" fill="#54A24B"/>
<text x="264.6" y="340.0" font-size="11" text-anchor="middle" fill="#444" >정렬됨</text>
<rect x="214.8" y="254.9" width="31.2" height="67.1" fill="#4C78A8"/>
<rect x="248.0" y="276.1" width="31.2" height="45.9" fill="#F58518"/>
<rect x="281.2" y="320.0" width="31.2" height="2.0" fill="#54A24B"/>
<text x="389.0" y="340.0" font-size="11" text-anchor="middle" fill="#444" >역순</text>
<rect x="339.2" y="253.8" width="31.2" height="68.2" fill="#4C78A8"/>
<rect x="372.4" y="267.7" width="31.2" height="54.3" fill="#F58518"/>
<rect x="405.6" y="313.9" width="31.2" height="8.1" fill="#54A24B"/>
<text x="513.4" y="340.0" font-size="11" text-anchor="middle" fill="#444" >중복많음</text>
<rect x="463.6" y="180.2" width="31.2" height="141.8" fill="#4C78A8"/>
<rect x="496.8" y="155.6" width="31.2" height="166.4" fill="#F58518"/>
<rect x="530.0" y="196.9" width="31.2" height="125.1" fill="#54A24B"/>
<text x="637.8" y="340.0" font-size="11" text-anchor="middle" fill="#444" >거의정렬</text>
<rect x="588.0" y="227.8" width="31.2" height="94.2" fill="#4C78A8"/>
<rect x="621.2" y="271.1" width="31.2" height="50.9" fill="#F58518"/>
<rect x="654.4" y="250.1" width="31.2" height="71.9" fill="#54A24B"/>
<rect x="86" y="42" width="12" height="12" fill="#4C78A8"/>
<text x="102.0" y="52.0" font-size="11" text-anchor="start" fill="#333" >mergeSort</text>
<rect x="196" y="42" width="12" height="12" fill="#F58518"/>
<text x="212.0" y="52.0" font-size="11" text-anchor="start" fill="#333" >quickSort</text>
<rect x="306" y="42" width="12" height="12" fill="#54A24B"/>
<text x="322.0" y="52.0" font-size="11" text-anchor="start" fill="#333" >timSort</text>
</svg>